<mxfile host="drawio-plugin" modified="2022-03-30T12:55:35.456Z" agent="5.0 (Windows NT 6.2; Win64; x64) AppleWebKit/537.36 (KHTML, like Gecko) Chrome/89.0.4389.114 Safari/537.36" version="15.5.4" etag="043HKFiANdH2A9HjDdxx" type="embed"><diagram id="xeNAmTGpPp0rghXLMhTI" name="Page-1"><mxGraphModel dx="558" dy="571" grid="1" gridSize="10" guides="1" tooltips="1" connect="1" arrows="1" fold="1" page="1" pageScale="1" pageWidth="850" pageHeight="1100" math="0" shadow="0"><root><mxCell id="0"/><mxCell id="1" parent="0"/><mxCell id="2" value="WeakMap对象&lt;br&gt;objMap" style="strokeWidth=2;html=1;shape=mxgraph.flowchart.terminator;whiteSpace=wrap;" vertex="1" parent="1"><mxGeometry x="80" y="300" width="100" height="60" as="geometry"/></mxCell><mxCell id="3" value="" style="strokeWidth=2;html=1;shape=mxgraph.flowchart.annotation_2;align=left;labelPosition=right;pointerEvents=1;" vertex="1" parent="1"><mxGeometry x="180" y="240" width="50" height="180" as="geometry"/></mxCell><mxCell id="7" value="" style="edgeStyle=orthogonalEdgeStyle;rounded=0;orthogonalLoop=1;jettySize=auto;html=1;" edge="1" parent="1" source="4" target="6"><mxGeometry relative="1" as="geometry"/></mxCell><mxCell id="11" value="" style="edgeStyle=orthogonalEdgeStyle;rounded=0;orthogonalLoop=1;jettySize=auto;html=1;" edge="1" parent="1" source="4" target="10"><mxGeometry relative="1" as="geometry"/></mxCell><mxCell id="4" value="Map对象&lt;br&gt;Obj1的依赖" style="strokeWidth=2;html=1;shape=mxgraph.flowchart.terminator;whiteSpace=wrap;" vertex="1" parent="1"><mxGeometry x="230" y="210" width="100" height="60" as="geometry"/></mxCell><mxCell id="13" value="" style="edgeStyle=orthogonalEdgeStyle;rounded=0;orthogonalLoop=1;jettySize=auto;html=1;" edge="1" parent="1" source="5" target="12"><mxGeometry relative="1" as="geometry"/></mxCell><mxCell id="15" value="" style="edgeStyle=orthogonalEdgeStyle;rounded=0;orthogonalLoop=1;jettySize=auto;html=1;" edge="1" parent="1" source="5" target="14"><mxGeometry relative="1" as="geometry"/></mxCell><mxCell id="5" value="Map对象&lt;br&gt;Obj2的依赖" style="strokeWidth=2;html=1;shape=mxgraph.flowchart.terminator;whiteSpace=wrap;" vertex="1" parent="1"><mxGeometry x="230" y="390" width="100" height="60" as="geometry"/></mxCell><mxCell id="6" value="Dep对象&lt;br&gt;obj1的age依赖" style="strokeWidth=2;html=1;shape=mxgraph.flowchart.terminator;whiteSpace=wrap;" vertex="1" parent="1"><mxGeometry x="410" y="250" width="100" height="60" as="geometry"/></mxCell><mxCell id="10" value="Dep对象&lt;br&gt;obj1的name依赖" style="strokeWidth=2;html=1;shape=mxgraph.flowchart.terminator;whiteSpace=wrap;" vertex="1" parent="1"><mxGeometry x="410" y="150" width="100" height="60" as="geometry"/></mxCell><mxCell id="12" value="Dep对象&lt;br&gt;Obj2的name依赖" style="strokeWidth=2;html=1;shape=mxgraph.flowchart.terminator;whiteSpace=wrap;" vertex="1" parent="1"><mxGeometry x="420" y="350" width="100" height="60" as="geometry"/></mxCell><mxCell id="14" value="Dep对象&lt;br&gt;Obj2的age依赖" style="strokeWidth=2;html=1;shape=mxgraph.flowchart.terminator;whiteSpace=wrap;" vertex="1" parent="1"><mxGeometry x="420" y="430" width="100" height="60" as="geometry"/></mxCell><mxCell id="16" value="obj1为key" style="text;html=1;strokeColor=none;fillColor=none;align=center;verticalAlign=middle;whiteSpace=wrap;rounded=0;" vertex="1" parent="1"><mxGeometry x="210" y="270" width="60" height="30" as="geometry"/></mxCell><mxCell id="18" value="obj2为key" style="text;html=1;strokeColor=none;fillColor=none;align=center;verticalAlign=middle;whiteSpace=wrap;rounded=0;" vertex="1" parent="1"><mxGeometry x="210" y="360" width="70" height="30" as="geometry"/></mxCell><mxCell id="19" value="name为key" style="text;html=1;strokeColor=none;fillColor=none;align=center;verticalAlign=middle;whiteSpace=wrap;rounded=0;" vertex="1" parent="1"><mxGeometry x="360" y="150" width="70" height="30" as="geometry"/></mxCell><mxCell id="20" value="age为key" style="text;html=1;strokeColor=none;fillColor=none;align=center;verticalAlign=middle;whiteSpace=wrap;rounded=0;" vertex="1" parent="1"><mxGeometry x="360" y="280" width="70" height="30" as="geometry"/></mxCell><mxCell id="21" value="name为key" style="text;html=1;strokeColor=none;fillColor=none;align=center;verticalAlign=middle;whiteSpace=wrap;rounded=0;" vertex="1" parent="1"><mxGeometry x="360" y="350" width="70" height="30" as="geometry"/></mxCell><mxCell id="22" value="age为key" style="text;html=1;strokeColor=none;fillColor=none;align=center;verticalAlign=middle;whiteSpace=wrap;rounded=0;" vertex="1" parent="1"><mxGeometry x="355" y="460" width="70" height="30" as="geometry"/></mxCell></root></mxGraphModel></diagram></mxfile>